# xmcd
# 
# Track frame offsets:
#     150
#     19358
#     41238
#     59380
#     80370
#     98058
#     120558
#     132788
#     155488
#     185295
#     197700
#     213158
# 
# Disc length: 3117
# 
# Revision: 4
# Processed by: cddbd v1.5.2PL0 Copyright (c) Steve Scherf et al.
# Submitted via: fre:ac v1.0.17
# 
DISCID=9f0c2b0c
DTITLE=Blind Idiot God - Cyclotron
DYEAR=1992
DGENRE=
TTITLE0=747
TTITLE1=Slackjaw
TTITLE2=Ground Lift
TTITLE3=Thunderhead
TTITLE4=Head On
TTITLE5=Hangtime
TTITLE6=Cloudcover
TTITLE7=Cold Start
TTITLE8=Death Hollow Canyon, Utah
TTITLE9=Easing Back
TTITLE10=Broadside
TTITLE11=Dead Continent Dub
EXTD=
EXTT0=
EXTT1=
EXTT2=
EXTT3=
EXTT4=
EXTT5=
EXTT6=
EXTT7=
EXTT8=
EXTT9=
EXTT10=
EXTT11=
PLAYORDER=
